<svg id="Layer_1" enable-background="new 0 0 512.049 512.049" height="512" viewBox="0 0 512.049 512.049" width="512" xmlns="http://www.w3.org/2000/svg"><g><path d="m80.873 253c0-100.287 61.774-186.137 149.343-221.601-3.798-4.673-7.604-9.329-11.318-14.013-303.516 63.563-240.473 499.866 70.594 472.7-117.651-14.926-208.619-115.382-208.619-237.086z"/><path d="m259.109 512c-139.383 2.854-261.86-119.6-258.996-259.003-1.95-116.202 83.349-224.381 195.915-251.239 29.953-8.167 62.711 13.235 67.314 43.93 3.501 20.424 13.129 38.997 27.844 53.711 14.048 14.049 31.726 23.509 51.121 27.359 21.817 4.33 38.713 21.226 43.044 43.043 3.851 19.396 13.312 37.074 27.359 51.122.001 0 .001 0 .001.001 14.713 14.713 33.285 24.341 53.71 27.843 15.019 2.575 28.394 11.353 36.694 24.083 8.293 12.717 10.93 28.474 7.235 43.231-26.863 112.574-135.033 197.863-251.241 195.919zm-49.701-471.896c-1.217 0-2.445.151-3.667.457-163.348 38.726-221.565 250.305-101.544 367.351 117.077 120.054 328.648 61.756 367.352-101.543 1.015-4.053.326-8.197-1.938-11.669-2.273-3.486-5.807-5.797-9.948-6.508-28.625-4.907-54.641-18.388-75.236-38.984-19.665-19.665-32.913-44.43-38.31-71.618-1.167-5.878-5.719-10.431-11.597-11.597-27.188-5.397-51.954-18.644-71.619-38.311-20.597-20.596-34.077-46.613-38.984-75.236-.71-4.142-3.021-7.675-6.507-9.948-2.426-1.581-5.179-2.394-8.002-2.394zm23.702 212.896c0 13.807 11.193 25 25 25 33.126-1.226 33.117-48.779 0-50-13.807 0-25 11.193-25 25zm-85-86c0 13.807 11.193 25 25 25 33.126-1.226 33.117-48.779 0-50-13.807 0-25 11.193-25 25zm0 171c0 13.807 11.193 25 25 25 33.126-1.226 33.117-48.779 0-50-13.807 0-25 11.193-25 25zm180 0c0 13.807 11.193 25 25 25 33.126-1.226 33.117-48.779 0-50-13.807 0-25 11.193-25 25z"/><path d="m383.11 0c13.807 0 25 11.193 25 25-1.226 33.126-48.779 33.117-50 0 0-13.807 11.193-25 25-25zm79 55c0 13.807 11.193 25 25 25 33.126-1.226 33.117-48.779 0-50-13.807 0-25 11.193-25 25zm-24 110c0 13.807 11.193 25 25 25 33.126-1.226 33.117-48.779 0-50-13.807 0-25 11.193-25 25z"/></g></svg>